<svg width="20" height="22" viewBox="0 0 20 22" fill="none" xmlns="http://www.w3.org/2000/svg">
<path d="M18 14.9491C18.3852 14.9493 18.7556 15.0977 19.0344 15.3635C19.3132 15.6293 19.479 15.9922 19.4975 16.377C19.516 16.7618 19.3858 17.1389 19.1338 17.4303C18.8818 17.7217 18.5274 17.9049 18.144 17.9421L18 17.9491H2C1.61478 17.9489 1.24441 17.8005 0.965613 17.5347C0.686821 17.2689 0.520988 16.906 0.502476 16.5212C0.483964 16.1364 0.614192 15.7593 0.866175 15.4679C1.11816 15.1765 1.47258 14.9933 1.856 14.9561L2 14.9491H18ZM18 7.9491C18.3978 7.9491 18.7794 8.10713 19.0607 8.38844C19.342 8.66974 19.5 9.05127 19.5 9.4491C19.5 9.84692 19.342 10.2285 19.0607 10.5098C18.7794 10.7911 18.3978 10.9491 18 10.9491H2C1.60218 10.9491 1.22064 10.7911 0.93934 10.5098C0.658035 10.2285 0.5 9.84692 0.5 9.4491C0.5 9.05127 0.658035 8.66974 0.93934 8.38844C1.22064 8.10713 1.60218 7.9491 2 7.9491H18ZM18 0.949097C18.3978 0.949097 18.7794 1.10713 19.0607 1.38844C19.342 1.66974 19.5 2.05127 19.5 2.4491C19.5 2.84692 19.342 3.22845 19.0607 3.50976C18.7794 3.79106 18.3978 3.9491 18 3.9491H2C1.60218 3.9491 1.22064 3.79106 0.93934 3.50976C0.658035 3.22845 0.5 2.84692 0.5 2.4491C0.5 2.05127 0.658035 1.66974 0.93934 1.38844C1.22064 1.10713 1.60218 0.949097 2 0.949097H18Z" fill="white"/>
</svg>
