<svg width="13" height="13" viewBox="0 0 13 13" fill="none" xmlns="http://www.w3.org/2000/svg">
<path fill-rule="evenodd" clip-rule="evenodd" d="M0.410981 0.410859C0.567254 0.254633 0.779177 0.16687 1.00015 0.16687C1.22112 0.16687 1.43304 0.254633 1.58931 0.410859L12.196 11.0167C12.3478 11.1739 12.4318 11.3844 12.4299 11.6029C12.428 11.8214 12.3403 12.0304 12.1858 12.1849C12.0313 12.3394 11.8223 12.427 11.6038 12.4289C11.3853 12.4308 11.1748 12.3468 11.0176 12.195L0.410981 1.58919C0.254755 1.43292 0.166992 1.221 0.166992 1.00003C0.166992 0.779055 0.254755 0.567132 0.410981 0.410859Z" fill="white"/>
<path fill-rule="evenodd" clip-rule="evenodd" d="M12.4222 0.410859C12.5784 0.567132 12.6662 0.779055 12.6662 1.00003C12.6662 1.221 12.5784 1.43292 12.4222 1.58919L1.81555 12.1959C1.73868 12.2754 1.64673 12.3389 1.54506 12.3826C1.44339 12.4263 1.33404 12.4493 1.22339 12.4502C1.11274 12.4512 1.003 12.4301 0.900591 12.3882C0.798177 12.3463 0.705134 12.2844 0.62689 12.2062C0.548646 12.1279 0.486769 12.0349 0.444868 11.9325C0.402967 11.8301 0.381882 11.7203 0.382844 11.6097C0.383805 11.499 0.406794 11.3897 0.450468 11.288C0.494142 11.1864 0.557628 11.0944 0.637219 11.0175L11.2439 0.410859C11.4002 0.254633 11.6121 0.16687 11.8331 0.16687C12.054 0.16687 12.2659 0.254633 12.4222 0.410859Z" fill="white"/>
</svg>
