<svg width="24" height="25" viewBox="0 0 24 25" fill="none" xmlns="http://www.w3.org/2000/svg">
<path d="M20 17.9491C20.3852 17.9493 20.7556 18.0977 21.0344 18.3635C21.3132 18.6293 21.479 18.9922 21.4975 19.377C21.516 19.7618 21.3858 20.1389 21.1338 20.4303C20.8818 20.7217 20.5274 20.9049 20.144 20.9421L20 20.9491H4C3.61478 20.9489 3.24441 20.8005 2.96561 20.5347C2.68682 20.2689 2.52099 19.906 2.50248 19.5212C2.48396 19.1364 2.61419 18.7593 2.86618 18.4679C3.11816 18.1765 3.47258 17.9933 3.856 17.9561L4 17.9491H20ZM20 10.9491C20.3978 10.9491 20.7794 11.1071 21.0607 11.3884C21.342 11.6697 21.5 12.0513 21.5 12.4491C21.5 12.8469 21.342 13.2285 21.0607 13.5098C20.7794 13.7911 20.3978 13.9491 20 13.9491H4C3.60218 13.9491 3.22064 13.7911 2.93934 13.5098C2.65804 13.2285 2.5 12.8469 2.5 12.4491C2.5 12.0513 2.65804 11.6697 2.93934 11.3884C3.22064 11.1071 3.60218 10.9491 4 10.9491H20ZM20 3.9491C20.3978 3.9491 20.7794 4.10713 21.0607 4.38844C21.342 4.66974 21.5 5.05127 21.5 5.4491C21.5 5.84692 21.342 6.22845 21.0607 6.50976C20.7794 6.79106 20.3978 6.9491 20 6.9491H4C3.60218 6.9491 3.22064 6.79106 2.93934 6.50976C2.65804 6.22845 2.5 5.84692 2.5 5.4491C2.5 5.05127 2.65804 4.66974 2.93934 4.38844C3.22064 4.10713 3.60218 3.9491 4 3.9491H20Z" fill="#131418"/>
</svg>
