<svg width="16" height="17" viewBox="0 0 16 17" fill="none" xmlns="http://www.w3.org/2000/svg">
<path d="M3.33354 5.66663C3.23472 5.66671 3.13813 5.69608 3.05599 5.75103C2.97385 5.80598 2.90983 5.88403 2.87202 5.97534C2.83421 6.06665 2.82431 6.16712 2.84357 6.26405C2.86282 6.36098 2.91037 6.45003 2.98021 6.51996L7.64688 11.1866C7.74063 11.2803 7.86771 11.3329 8.00021 11.3329C8.13271 11.3329 8.25979 11.2803 8.35354 11.1866L13.0202 6.51996C13.09 6.45003 13.1376 6.36098 13.1569 6.26405C13.1761 6.16712 13.1662 6.06665 13.1284 5.97534C13.0906 5.88403 13.0266 5.80598 12.9444 5.75103C12.8623 5.69608 12.7657 5.66671 12.6669 5.66663H3.33354Z" fill="#696969"/>
</svg>
