<svg width="16" height="17" viewBox="0 0 16 17" fill="none" xmlns="http://www.w3.org/2000/svg">
<path d="M12.6665 11.3334C12.7653 11.3333 12.8619 11.3039 12.944 11.249C13.0262 11.194 13.0902 11.116 13.128 11.0247C13.1658 10.9333 13.1757 10.8329 13.1564 10.7359C13.1372 10.639 13.0896 10.55 13.0198 10.48L8.35312 5.81337C8.25937 5.71974 8.13229 5.66715 7.99979 5.66715C7.86729 5.66715 7.74021 5.71974 7.64646 5.81337L2.97979 10.48C2.90995 10.55 2.8624 10.639 2.84315 10.7359C2.82389 10.8329 2.83379 10.9333 2.8716 11.0247C2.9094 11.116 2.97342 11.194 3.05557 11.249C3.13771 11.3039 3.2343 11.3333 3.33312 11.3334L12.6665 11.3334Z" fill="#2BCDBA"/>
</svg>
