<svg width="18" height="18" viewBox="0 0 18 18" fill="none" xmlns="http://www.w3.org/2000/svg">
<path d="M0.25 9C0.25 10.7306 0.763179 12.4223 1.72464 13.8612C2.6861 15.3002 4.05267 16.4217 5.65152 17.0839C7.25037 17.7462 9.00971 17.9195 10.707 17.5819C12.4044 17.2442 13.9635 16.4109 15.1872 15.1872C16.4109 13.9635 17.2442 12.4044 17.5819 10.707C17.9195 9.00971 17.7462 7.25037 17.0839 5.65152C16.4217 4.05267 15.3002 2.6861 13.8612 1.72464C12.4223 0.763179 10.7306 0.25 9 0.25C6.67936 0.25 4.45376 1.17187 2.81282 2.81282C1.17187 4.45376 0.25 6.67936 0.25 9ZM4 8.375H11.5938L8.10625 4.87062L9 4L14 9L9 14L8.10625 13.1081L11.5938 9.625H4V8.375Z" fill="white"/>
</svg>
